<svg width="68" height="8" viewBox="0 0 68 8" fill="none" xmlns="http://www.w3.org/2000/svg">
<path fill-rule="evenodd" clip-rule="evenodd" d="M24.8182 7.99989V8C22.546 8 20.8491 6.28414 20.8491 4.00631C20.8491 1.71585 22.546 0 24.8182 0C26.7746 0 28.2899 1.31727 28.5933 3.24808H26.5095C26.2533 2.46712 25.6083 1.96008 24.8227 1.96008C23.7656 1.96008 22.9903 2.82709 22.9903 4.0062C22.9903 5.18074 23.7656 6.03525 24.8227 6.03525C25.651 6.03525 26.3021 5.48469 26.5113 4.63845H28.6147C28.3309 6.64074 26.8065 7.99989 24.8182 7.99989ZM15.2039 7.80734L15.6174 6.57057H18.2634L18.6747 7.80734H20.9394L17.9427 0.19244H15.9324L13 7.80734H15.2039ZM17.7615 4.92891H16.1183L16.9362 2.56927L17.7615 4.92891ZM33.1107 8V7.99989C35.0991 7.99989 36.6234 6.64074 36.9072 4.63845H34.8038C34.5946 5.48469 33.9435 6.03525 33.1152 6.03525C32.0581 6.03525 31.2828 5.18074 31.2828 4.0062C31.2828 2.82709 32.0581 1.96008 33.1152 1.96008C33.9008 1.96008 34.5458 2.46712 34.8021 3.24808H36.8858C36.5824 1.31727 35.0671 0 33.1107 0C30.8385 0 29.1416 1.71585 29.1416 4.00631C29.1416 6.28414 30.8385 8 33.1107 8ZM41.5448 7.99989V8C39.145 8 37.4325 6.32733 37.4325 4C37.4325 1.67267 39.145 0 41.5448 0C43.9385 0 45.6448 1.66636 45.6448 4C45.6448 6.33353 43.9385 7.99989 41.5448 7.99989ZM41.5448 6.04797C40.4086 6.04786 39.5739 5.18553 39.5739 4.00011C39.5739 2.81469 40.4086 1.95235 41.5448 1.95235C42.681 1.95235 43.5035 2.80849 43.5035 4.00022C43.5035 5.19184 42.681 6.04797 41.5448 6.04797ZM53.0657 4.86157C53.0657 6.73506 51.71 7.99989 49.807 7.99989C47.9038 7.99989 46.5481 6.73506 46.5481 4.86157V0.192439H48.65V4.82241C48.65 5.56671 49.1202 6.04765 49.807 6.04765C50.4937 6.04765 50.9638 5.56671 50.9638 4.82241V0.192439H53.0657V4.86157ZM56.3582 7.80734V3.67484L59.3239 7.80734H61.0247V0.19244H59.0318V4.18754L56.1653 0.19244H54.3653V7.80734H56.3582ZM65.9722 2.08137V7.80734H63.9066V2.08137H61.8786V0.19244H68V2.08137H65.9722Z" fill="white"/>
<path fill-rule="evenodd" clip-rule="evenodd" d="M7.42063 7.95322L3.71032 0L0 7.95322H7.42063Z" fill="url(#paint0_linear_0_998)"/>
<path fill-rule="evenodd" clip-rule="evenodd" d="M10.9127 7.95322L7.20238 0L3.49207 7.95322H10.9127Z" fill="url(#paint1_linear_0_998)"/>
<defs>
<linearGradient id="paint0_linear_0_998" x1="-3.71032" y1="3.97661" x2="4.22383" y2="11.3795" gradientUnits="userSpaceOnUse">
<stop stop-color="#5141E2"/>
<stop offset="1" stop-color="#DE39FF"/>
</linearGradient>
<linearGradient id="paint1_linear_0_998" x1="-0.218252" y1="3.97661" x2="7.7159" y2="11.3795" gradientUnits="userSpaceOnUse">
<stop stop-color="#5141E2"/>
<stop offset="1" stop-color="#DE39FF" stop-opacity="0.01"/>
</linearGradient>
</defs>
</svg>
