<svg width="45" height="30" viewBox="0 0 45 30" fill="none" xmlns="http://www.w3.org/2000/svg">
<path fill-rule="evenodd" clip-rule="evenodd" d="M22.5 27.9933C24.7063 29.2695 27.2678 30 30 30C38.2843 30 45 23.2843 45 15C45 6.71573 38.2843 0 30 0C27.2678 0 24.7063 0.730457 22.5 2.00673C20.2937 0.730457 17.7322 0 15 0V2.72727C16.7896 2.72727 18.4898 3.11033 20.023 3.79893C16.9409 6.54615 15 10.5464 15 15C15 19.4536 16.9409 23.4538 20.023 26.2011C18.4898 26.8897 16.7896 27.2727 15 27.2727C8.22196 27.2727 2.72727 21.778 2.72727 15H0C0 23.2843 6.71573 30 15 30C17.7322 30 20.2937 29.2695 22.5 27.9933ZM24.977 26.2011C26.5102 26.8897 28.2104 27.2727 30 27.2727C36.778 27.2727 42.2727 21.778 42.2727 15C42.2727 8.22196 36.778 2.72727 30 2.72727C28.2104 2.72727 26.5102 3.11033 24.977 3.79893C28.0591 6.54615 30 10.5464 30 15C30 19.4536 28.0591 23.4538 24.977 26.2011ZM22.5 24.7152C25.4032 22.4706 27.2727 18.9536 27.2727 15C27.2727 11.0464 25.4032 7.52939 22.5 5.28484C19.5968 7.52939 17.7273 11.0464 17.7273 15C17.7273 18.9536 19.5968 22.4706 22.5 24.7152Z" fill="white"/>
</svg>
