<svg width="60" height="10" viewBox="0 0 60 10" fill="none" xmlns="http://www.w3.org/2000/svg">
<path fill-rule="evenodd" clip-rule="evenodd" d="M57.5316 4.47319C57.569 4.79706 57.596 4.99474 57.6126 5.06625L58.6224 9.62776H60L57.7934 0L55.1629 5.82334C55.138 5.88223 55.1006 5.96635 55.0507 6.07571C54.8637 6.4837 54.7265 6.82019 54.6393 7.08517C54.5188 6.76971 54.4159 6.50473 54.3307 6.29022C54.2455 6.07571 54.1822 5.92219 54.1406 5.82965L51.4478 0L49.291 9.62776H50.6561L51.6348 5.07886C51.6888 4.84753 51.7293 4.62566 51.7563 4.41325C51.7833 4.20084 51.7989 3.9979 51.8031 3.80442C51.8571 3.99369 51.9205 4.18507 51.9932 4.37855C52.0659 4.57203 52.1522 4.77182 52.2519 4.97792L54.6393 10L57.0267 5.07886C57.1306 4.86015 57.2168 4.64564 57.2854 4.43533C57.3539 4.22503 57.4069 4.01472 57.4443 3.80442C57.4692 3.98107 57.4983 4.20399 57.5316 4.47319ZM45.4655 9.62776L44.4308 7.24921H40.8154L39.7557 9.62776H38.1974L42.6168 0.0252366L47.0301 9.62776H45.4655ZM35.3193 2.63722C34.8996 2.2755 34.456 2.00421 33.9885 1.82334C33.521 1.64248 33.0296 1.55205 32.5143 1.55205C31.5169 1.55205 30.7056 1.87592 30.0801 2.52366C29.4547 3.1714 29.142 4.01051 29.142 5.04101C29.142 6.03786 29.4464 6.86014 30.0552 7.50789C30.664 8.15563 31.4317 8.4795 32.3585 8.4795C32.8987 8.4795 33.4129 8.38276 33.9012 8.18927C34.3895 7.99579 34.858 7.70347 35.3068 7.3123V9.00946C34.9079 9.29969 34.4737 9.5163 34.0041 9.65931C33.5345 9.80231 33.0254 9.87382 32.4769 9.87382C31.7787 9.87382 31.1336 9.75815 30.5414 9.52681C29.9492 9.29548 29.4288 8.95479 28.9799 8.50473C28.5353 8.06309 28.1935 7.54259 27.9546 6.94322C27.7156 6.34385 27.5961 5.70558 27.5961 5.02839C27.5961 4.35121 27.7156 3.71504 27.9546 3.11987C28.1935 2.52471 28.5395 2.00211 28.9924 1.55205C29.4454 1.09779 29.9648 0.753944 30.5508 0.520505C31.1367 0.287065 31.7704 0.170347 32.452 0.170347C32.988 0.170347 33.4992 0.249211 33.9854 0.40694C34.4716 0.56467 34.9432 0.803363 35.4003 1.12303L35.3193 2.63722ZM0 9.62776V0.391167H5.09268V1.66562H1.48355V3.98107H5.09268V5.29968H1.48355V8.28391H5.09268V9.62776H0ZM11.0376 9.62776V5.40063L7.9645 0.391167H9.52285L11.4365 3.52681C11.4822 3.60673 11.5394 3.71188 11.6079 3.84227C11.6765 3.97266 11.7461 4.11356 11.8167 4.26498C11.8749 4.11777 11.9362 3.97897 12.0006 3.84858C12.065 3.71819 12.1326 3.59832 12.2032 3.48896L14.1667 0.391167H15.6503L12.5086 5.40063V9.62776H11.0376ZM18.921 0.391167V9.62776H24.0137V8.28391H20.4046V5.29968H24.0137V3.98107H20.4046V1.66562H24.0137V0.391167H18.921ZM43.9072 6H41.3639L42.2989 3.89274C42.3571 3.74553 42.4143 3.58465 42.4704 3.41009C42.5265 3.23554 42.5794 3.04732 42.6293 2.84543C42.6875 3.05994 42.7457 3.25447 42.8038 3.42902C42.862 3.60358 42.9181 3.75815 42.9721 3.89274L43.9072 6Z" fill="white"/>
</svg>
