<svg width="56" height="9" viewBox="0 0 56 9" fill="none" xmlns="http://www.w3.org/2000/svg">
<path fill-rule="evenodd" clip-rule="evenodd" d="M17.0338 6.75421C16.7044 6.61028 16.3797 6.4486 16.0597 6.26916L15.1054 7.71028C15.4404 7.90094 15.8046 8.0757 16.198 8.23458C16.5914 8.39346 17.0055 8.52991 17.4404 8.64393C17.8752 8.75795 18.3297 8.84579 18.8041 8.90748C19.2784 8.96916 19.764 9 20.261 9C21.0139 9 21.6971 8.92991 22.3108 8.78972C22.9244 8.64953 23.4486 8.44393 23.8834 8.1729C24.3182 7.90187 24.6533 7.56916 24.8886 7.17477C25.1239 6.78037 25.2415 6.33084 25.2415 5.82617C25.2415 5.4486 25.1719 5.10748 25.0326 4.8028C24.8933 4.49813 24.6881 4.23832 24.4171 4.02336C24.146 3.80841 23.81 3.64299 23.4091 3.5271C23.0082 3.41121 22.548 3.35327 22.0284 3.35327C21.7536 3.35327 21.4703 3.36729 21.1786 3.39533C20.8868 3.42336 20.6007 3.45421 20.3203 3.48785L19.9094 3.53622L19.5184 3.58037C19.2643 3.60841 19.0394 3.62243 18.8436 3.62243C18.358 3.62243 17.9966 3.53925 17.7594 3.3729C17.5222 3.20654 17.4037 2.99252 17.4037 2.73084C17.4037 2.59626 17.4404 2.46075 17.5138 2.3243C17.5872 2.18785 17.718 2.06449 17.9062 1.95421C18.0945 1.84392 18.3476 1.75327 18.6657 1.68224C18.9838 1.61121 19.3895 1.5757 19.8826 1.5757C20.229 1.5757 20.5687 1.59533 20.9019 1.63458C21.2351 1.67383 21.5579 1.7271 21.8703 1.79439C22.1828 1.86168 22.4821 1.94112 22.7682 2.03271C23.0543 2.1243 23.3216 2.2243 23.57 2.33271L24.3549 0.897196C24.0538 0.762616 23.7281 0.640188 23.378 0.529907C23.0279 0.419626 22.6637 0.325234 22.2854 0.246729C21.907 0.168224 21.5183 0.107477 21.1193 0.064486C20.7202 0.0214951 20.3231 0 19.9278 0C19.3819 0 18.8954 0.0383174 18.4681 0.114953C18.0408 0.191589 17.6643 0.297196 17.3387 0.431776C17.0131 0.566356 16.7354 0.726167 16.5058 0.911215C16.2762 1.09626 16.0889 1.29626 15.9439 1.51121C15.799 1.72617 15.6936 1.9514 15.6277 2.18692C15.5618 2.42243 15.5289 2.65981 15.5289 2.89907C15.5289 3.30281 15.6117 3.65607 15.7774 3.95888C15.943 4.26168 16.166 4.51402 16.4465 4.71589C16.727 4.91776 17.0488 5.06916 17.4121 5.17009C17.7754 5.27103 18.1547 5.3215 18.55 5.3215C18.7871 5.3215 19.0403 5.30561 19.3095 5.27383C19.5786 5.24206 19.8516 5.20748 20.1283 5.17009L20.5412 5.11612L20.9499 5.06636C21.2209 5.03458 21.4788 5.01869 21.7235 5.01869C22.2807 5.01869 22.6929 5.11121 22.9602 5.29626C23.2275 5.48131 23.3611 5.73271 23.3611 6.05047C23.3611 6.2486 23.3075 6.43177 23.2002 6.6C23.0929 6.76823 22.9216 6.91308 22.6863 7.03458C22.451 7.15608 22.147 7.2514 21.7743 7.32056C21.4016 7.38972 20.9499 7.4243 20.4191 7.4243C19.9786 7.4243 19.5636 7.39813 19.1739 7.34579C18.7843 7.29346 18.4126 7.21776 18.0587 7.11869C17.7048 7.01963 17.3632 6.89813 17.0338 6.75421ZM0 0.11215H1.80135V8.87664H0V0.11215ZM4.07139 0.11215H5.86145L11.3615 2.97196V0.11215H13.1516V8.87664H11.3615V4.85607L5.86145 2.01308V8.87664H4.07139V0.11215ZM26.8791 0.11215H28.6692V4.94019C28.6692 5.33645 28.7237 5.68878 28.8329 5.9972C28.9421 6.30561 29.1049 6.56635 29.3214 6.77944C29.5378 6.99252 29.8061 7.15421 30.126 7.26449C30.446 7.37477 30.8187 7.42991 31.2441 7.42991C31.6658 7.42991 32.0375 7.37477 32.3594 7.26449C32.6813 7.15421 32.9504 6.99252 33.1669 6.77944C33.3834 6.56635 33.5462 6.30561 33.6553 5.9972C33.7645 5.68878 33.8191 5.33645 33.8191 4.94019V0.11215H35.6092V5.15327C35.6092 5.72897 35.5113 6.25233 35.3155 6.72336C35.1198 7.1944 34.8355 7.59813 34.4628 7.93458C34.0901 8.27103 33.6337 8.53084 33.0935 8.71402C32.5533 8.8972 31.9368 8.98878 31.2441 8.98878C30.5514 8.98878 29.935 8.8972 29.3948 8.71402C28.8546 8.53084 28.3981 8.27103 28.0254 7.93458C27.6527 7.59813 27.3685 7.1944 27.1727 6.72336C26.977 6.25233 26.8791 5.72897 26.8791 5.15327V0.11215ZM42.2781 0.11215H37.7888V8.87664H39.5789V6.38131L42.3402 6.38692L44.0004 8.87664H46.1914L44.2715 6.0729C44.6065 5.94579 44.8983 5.78598 45.1467 5.59346C45.3952 5.40093 45.6013 5.18131 45.7651 4.93458C45.9288 4.68785 46.0502 4.41776 46.1293 4.1243C46.2083 3.83084 46.2479 3.5215 46.2479 3.19626C46.2479 2.71402 46.1679 2.28224 46.0079 1.90093C45.8479 1.51962 45.6041 1.19626 45.2766 0.930841C44.9491 0.665419 44.5369 0.462618 44.0399 0.32243C43.543 0.182242 42.9557 0.11215 42.2781 0.11215ZM42.3233 4.84486C42.6621 4.84486 42.9586 4.80561 43.2127 4.7271C43.4668 4.6486 43.6795 4.53832 43.8508 4.39626C44.022 4.2542 44.15 4.08131 44.2347 3.87757C44.3195 3.67383 44.3618 3.44673 44.3618 3.19626C44.3618 2.70654 44.1924 2.32804 43.8536 2.06075C43.5148 1.79346 43.0047 1.65981 42.3233 1.65981H39.5789V4.84486H42.3233ZM55.8814 0.11215H48.3654V8.87664H56V7.32336H50.1555V4.88411H55.2264V3.42056H50.1555V1.67103H55.8814V0.11215Z" fill="#F3D3CA"/>
</svg>
