<svg width="62" height="10" viewBox="0 0 62 10" fill="none" xmlns="http://www.w3.org/2000/svg">
<path fill-rule="evenodd" clip-rule="evenodd" d="M49.8556 9.892C50.3597 9.892 50.8105 9.83341 51.2082 9.71622C51.6059 9.59904 51.94 9.43589 52.2105 9.22679C52.4811 9.01769 52.7053 8.76149 52.8834 8.45818C53.0614 8.15487 53.1897 7.82399 53.2683 7.46553C53.347 7.10708 53.3863 6.71415 53.3863 6.28676V0.110294H51.7978V0.834099H51.7701C51.4834 0.56296 51.1539 0.356158 50.7816 0.213695C50.4094 0.0712316 50.0221 0 49.6198 0C48.9863 0 48.4175 0.149357 47.9134 0.44807C47.4094 0.746783 47.0175 1.16153 46.7377 1.69233C46.4579 2.22312 46.3181 2.81939 46.3181 3.48116C46.3181 4.15211 46.4649 4.74724 46.7585 5.26654C47.0522 5.78585 47.4556 6.18451 47.9689 6.46255C48.4822 6.74058 49.0602 6.8796 49.703 6.8796C50.5631 6.8796 51.2637 6.59926 51.8048 6.0386H51.8325V6.7693C51.8325 7.25643 51.6522 7.66085 51.2915 7.98254C50.9308 8.30423 50.4221 8.46507 49.7654 8.46507C49.3169 8.46507 48.9227 8.40993 48.5828 8.29963C48.2429 8.18934 47.851 8.017 47.4071 7.78263L47.0325 9.17509C47.4209 9.40487 47.8579 9.5818 48.3435 9.70588C48.829 9.82996 49.3331 9.892 49.8556 9.892ZM16.8059 3.56388V7.00368H15.2175V3.41222C15.2175 2.09789 14.7574 1.44072 13.8372 1.44072C13.3516 1.44072 12.9528 1.63028 12.6406 2.00942C12.3285 2.38856 12.1724 2.90671 12.1724 3.56388V6.99678H10.584V0.110294H12.1724V1.06158H12.1932C12.4753 0.721507 12.8048 0.460708 13.1817 0.279182C13.5585 0.0976562 13.9505 0.00689338 14.3574 0.00689338C15.3239 0.00689338 16.0129 0.388327 16.4244 1.15119H16.4522C16.7435 0.778952 17.1019 0.495175 17.5273 0.299862C17.9528 0.10455 18.4221 0.00689338 18.9354 0.00689338C19.7169 0.00689338 20.3181 0.256204 20.7389 0.754825C21.1597 1.25345 21.3701 2.00597 21.3701 3.01241V7.00368H19.7817V3.41222C19.7817 2.09789 19.3285 1.44072 18.4221 1.44072C17.9597 1.44072 17.5747 1.63028 17.2672 2.00942C16.9597 2.38856 16.8059 2.90671 16.8059 3.56388ZM27.8741 6.07307C27.347 6.76241 26.6117 7.10708 25.6684 7.10708C25.1921 7.10708 24.747 7.02321 24.3331 6.85547C23.9192 6.68773 23.5643 6.45221 23.2684 6.1489C22.9724 5.84559 22.7389 5.47335 22.5678 5.03217C22.3967 4.59099 22.3111 4.10846 22.3111 3.58456C22.3111 3.07445 22.3967 2.59651 22.5678 2.15074C22.7389 1.70496 22.9724 1.32583 23.2684 1.01333C23.5643 0.700827 23.9181 0.454963 24.3296 0.275735C24.7412 0.0965074 25.1828 0.00689338 25.6545 0.00689338C26.5562 0.00689338 27.2707 0.317096 27.7978 0.9375H27.8256V0.110294H29.414V6.99678H27.895V6.07307H27.8741ZM25.9181 5.67325C25.3308 5.67325 24.8522 5.47909 24.4822 5.09076C24.1123 4.70244 23.9273 4.20267 23.9273 3.59145C23.9273 2.94347 24.1181 2.42302 24.4996 2.0301C24.8811 1.63718 25.3562 1.44072 25.925 1.44072C26.4892 1.44072 26.9574 1.64637 27.3296 2.05767C27.7019 2.46898 27.888 2.98024 27.888 3.59145C27.888 4.20267 27.6973 4.70244 27.3158 5.09076C26.9343 5.47909 26.4684 5.67325 25.9181 5.67325ZM37.3053 2.94347V7.00368H35.7169V3.35018C35.7169 2.99173 35.6845 2.68842 35.6198 2.44026C35.5551 2.1921 35.4556 1.99563 35.3215 1.85087C35.1874 1.70611 35.0314 1.60156 34.8533 1.53722C34.6753 1.47289 34.4614 1.44072 34.2117 1.44072C33.666 1.44072 33.2302 1.62454 32.9042 1.99219C32.5782 2.35983 32.4152 2.87454 32.4152 3.53631V6.99678H30.8267V0.110294H32.4152V1.05469H32.436C32.7273 0.714614 33.0741 0.454963 33.4764 0.275735C33.8788 0.0965074 34.3065 0.00689338 34.7597 0.00689338C35.5551 0.00689338 36.1782 0.247013 36.629 0.727252C37.0799 1.20749 37.3053 1.94623 37.3053 2.94347ZM41.5967 7.10708C42.54 7.10708 43.2753 6.76241 43.8025 6.07307H43.8233V6.99678H45.3423V0.110294H43.7539V0.9375H43.7262C43.199 0.317096 42.4845 0.00689338 41.5828 0.00689338C41.1111 0.00689338 40.6695 0.0965074 40.2579 0.275735C39.8464 0.454963 39.4926 0.700827 39.1967 1.01333C38.9007 1.32583 38.6672 1.70496 38.4961 2.15074C38.325 2.59651 38.2395 3.07445 38.2395 3.58456C38.2395 4.10846 38.325 4.59099 38.4961 5.03217C38.6672 5.47335 38.9007 5.84559 39.1967 6.1489C39.4926 6.45221 39.8475 6.68773 40.2614 6.85547C40.6753 7.02321 41.1204 7.10708 41.5967 7.10708ZM40.4105 5.09076C40.7805 5.47909 41.2591 5.67325 41.8464 5.67325C42.3967 5.67325 42.8626 5.47909 43.2441 5.09076C43.6256 4.70244 43.8163 4.20267 43.8163 3.59145C43.8163 2.98024 43.6302 2.46898 43.2579 2.05767C42.8857 1.64637 42.4175 1.44072 41.8533 1.44072C41.2845 1.44072 40.8094 1.63718 40.4279 2.0301C40.0464 2.42302 39.8556 2.94347 39.8556 3.59145C39.8556 4.20267 40.0406 4.70244 40.4105 5.09076ZM48.4926 4.88396C48.8649 5.24472 49.3377 5.42509 49.9111 5.42509C50.4892 5.42509 50.9597 5.23552 51.3227 4.85639C51.6857 4.47725 51.8672 3.99586 51.8672 3.41222C51.8672 2.83318 51.6811 2.36213 51.3088 1.99908C50.9365 1.63603 50.4707 1.4545 49.9111 1.4545C49.3238 1.4545 48.8475 1.63833 48.4822 2.00597C48.1169 2.37362 47.9342 2.84926 47.9342 3.4329C47.9342 4.03952 48.1204 4.52321 48.4926 4.88396ZM57.9273 7.10708C58.5747 7.10708 59.1446 6.98989 59.6371 6.75551C60.1296 6.52114 60.5331 6.20404 60.8475 5.80423L59.7377 4.85983C59.303 5.40211 58.7273 5.67325 58.0105 5.67325C57.5019 5.67325 57.0706 5.53309 56.7169 5.25276C56.3631 4.97243 56.1354 4.5887 56.0337 4.10156H61.0834C61.1111 3.93612 61.125 3.72702 61.125 3.47426C61.125 2.8079 60.9886 2.21278 60.7157 1.68888C60.4429 1.16498 60.0498 0.753676 59.5365 0.454963C59.0232 0.15625 58.4313 0.00689338 57.7608 0.00689338C57.2845 0.00689338 56.8383 0.0930607 56.4221 0.265395C56.0059 0.43773 55.6475 0.677849 55.347 0.985754C55.0464 1.29366 54.8105 1.6682 54.6394 2.10938C54.4683 2.55055 54.3828 3.03079 54.3828 3.55009C54.3828 4.25322 54.5377 4.87707 54.8475 5.42165C55.1574 5.96622 55.5805 6.38327 56.1169 6.67279C56.6533 6.96232 57.2568 7.10708 57.9273 7.10708ZM56.0614 2.82629H59.5296C59.4279 2.3989 59.2325 2.06112 58.9435 1.81296C58.6545 1.5648 58.288 1.44072 57.8441 1.44072C57.4048 1.44072 57.0256 1.56135 56.7065 1.80262C56.3874 2.04389 56.1724 2.38511 56.0614 2.82629Z" fill="white"/>
<path fill-rule="evenodd" clip-rule="evenodd" d="M2.34 1.19048C2.34 1.84796 1.81617 2.38095 1.17 2.38095C0.523827 2.38095 0 1.84796 0 1.19048C0 0.532994 0.523827 0 1.17 0C1.81617 0 2.34 0.532994 2.34 1.19048ZM2.34 5.47619C2.34 6.13367 1.81617 6.66667 1.17 6.66667C0.523827 6.66667 0 6.13367 0 5.47619C0 4.81871 0.523827 4.28571 1.17 4.28571C1.81617 4.28571 2.34 4.81871 2.34 5.47619ZM5.382 2.38095C6.02817 2.38095 6.552 1.84796 6.552 1.19048C6.552 0.532994 6.02817 0 5.382 0C4.73583 0 4.212 0.532994 4.212 1.19048C4.212 1.84796 4.73583 2.38095 5.382 2.38095Z" fill="white"/>
<ellipse opacity="0.5" cx="5.38198" cy="5.5238" rx="1.17" ry="1.19048" fill="white"/>
</svg>
