<svg width="71" height="6" viewBox="0 0 71 6" fill="none" xmlns="http://www.w3.org/2000/svg">
<path fill-rule="evenodd" clip-rule="evenodd" d="M42.1192 6C43.8939 6 45.3075 4.65 45.3075 3C45.3075 1.34 43.8939 0 42.1192 0C40.3444 0 38.9308 1.34 38.9308 3C38.9308 4.65 40.3444 6 42.1192 6ZM1.38265 5.89V2.54L3.06453 5.16H3.27089L4.95277 2.54V5.89H6.33542V0.1H4.95277L3.16771 2.82L1.38265 0.1H0V5.89H1.38265ZM17.0664 5.89V3.94L19.2126 0.1H17.7371L16.3751 2.61L15.0234 0.1H13.5479L15.6941 3.94V5.89H17.0664ZM27.8077 3.88V5.89H26.4251V0.1H27.8077V2.66H30.0055V0.1H31.3882V5.89H30.0055V3.88H27.8077ZM40.3651 3C40.3651 3.96 41.1389 4.77 42.1192 4.77C43.0994 4.77 43.8733 3.96 43.8733 3C43.8733 2.02 43.0994 1.23 42.1192 1.23C41.1389 1.23 40.3651 2.02 40.3651 3ZM54.2328 5.89V2.54L55.9147 5.16H56.1211L57.8029 2.54V5.89H59.1856V0.1H57.8029L56.0179 2.82L54.2328 0.1H52.8502V5.89H54.2328ZM71 4.66V5.89H66.8314V0.1H71V1.33H68.2141V2.43H70.7833V3.66H68.2141V4.66H71Z" fill="white"/>
</svg>
